<?xml version="1.0" encoding="utf-8"?>
<!-- Generator: Adobe Illustrator 23.0.1, SVG Export Plug-In . SVG Version: 6.00 Build 0)  -->
<svg version="1.1"
	 id="svg2" xmlns:cc="http://creativecommons.org/ns#" xmlns:dc="http://purl.org/dc/elements/1.1/" xmlns:inkscape="http://www.inkscape.org/namespaces/inkscape" xmlns:rdf="http://www.w3.org/1999/02/22-rdf-syntax-ns#" xmlns:sodipodi="http://sodipodi.sourceforge.net/DTD/sodipodi-0.dtd" xmlns:svg="http://www.w3.org/2000/svg"
	 xmlns="http://www.w3.org/2000/svg" xmlns:xlink="http://www.w3.org/1999/xlink" x="0px" y="0px" viewBox="0 0 771.6 772.8"
	 style="enable-background:new 0 0 771.6 772.8;" xml:space="preserve">
<style type="text/css">
	.st0{fill:#0D1637;}
	.st1{clip-path:url(#SVGID_2_);}
	.st2{fill:#94EEF2;}
	.st3{clip-path:url(#SVGID_4_);}
</style>
<title  id="title7">SOVE Source Code Main Logo</title>
<sodipodi:namedview  bordercolor="#666666" borderopacity="1" fit-margin-bottom="0" fit-margin-left="0" fit-margin-right="0" fit-margin-top="0" gridtolerance="10" guidetolerance="10" id="namedview4" inkscape:current-layer="svg2" inkscape:cx="-781.74906" inkscape:cy="515.46537" inkscape:pageopacity="0" inkscape:pageshadow="2" inkscape:window-height="797" inkscape:window-maximized="0" inkscape:window-width="1431" inkscape:window-x="1423" inkscape:window-y="163" inkscape:zoom="0.36645963" objecttolerance="10" pagecolor="#ffffff" showgrid="false" viewbox-x="-64.3" viewbox-y="-64.400025">
	</sodipodi:namedview>
<g>
	<g>
		
			<rect x="159.5" y="160.2" transform="matrix(0.7071 -0.7071 0.7071 0.7071 -160.7286 387.025)" class="st0" width="454.7" height="454.7"/>
	</g>
	<g>
		<defs>
			
				<rect id="SVGID_1_" x="185.7" y="186.4" transform="matrix(0.7071 -0.7071 0.7071 0.7071 -160.7286 387.025)" width="402.2" height="402.2"/>
		</defs>
		<clipPath id="SVGID_2_">
			<use xlink:href="#SVGID_1_"  style="overflow:visible;"/>
		</clipPath>
		<g class="st1">
			<g>
				<g>
					
						<rect x="259.6" y="101.4" transform="matrix(0.7071 -0.7071 0.7071 0.7071 -87.1167 262.242)" class="st2" width="26.9" height="269.8"/>
				</g>
				<g>
					
						<rect x="505.9" y="321.3" transform="matrix(0.7071 -0.7071 0.7071 0.7071 -189.1602 508.5968)" class="st2" width="26.9" height="322.7"/>
				</g>
			</g>
			<g>
				<g>
					
						<rect x="130.3" y="506.6" transform="matrix(0.7071 -0.7071 0.7071 0.7071 -282.3006 358.5936)" class="st2" width="322.7" height="26.9"/>
				</g>
				<g>
					
						<rect x="403.2" y="260.3" transform="matrix(0.7071 -0.7071 0.7071 0.7071 -35.9459 460.637)" class="st2" width="269.8" height="26.9"/>
				</g>
			</g>
			<g>
				<g>
					
						<rect x="320.5" y="241.6" transform="matrix(0.7071 -0.7071 0.7071 0.7071 -39.1566 415.4564)" class="st2" width="322.7" height="26.9"/>
				</g>
				<g>
					
						<rect x="100.7" y="487.9" transform="matrix(0.7071 -0.7071 0.7071 0.7071 -285.5113 313.4129)" class="st2" width="269.8" height="26.9"/>
				</g>
			</g>
			<g>
				<g>
					
						<rect x="240.8" y="131" transform="matrix(0.7071 -0.7071 0.7071 0.7071 -132.2968 265.4527)" class="st2" width="26.9" height="322.7"/>
				</g>
				<g>
					
						<rect x="487.2" y="403.9" transform="matrix(0.7071 -0.7071 0.7071 0.7071 -234.3403 511.8075)" class="st2" width="26.9" height="269.8"/>
				</g>
			</g>
			<g>
				<g>
					<polygon class="st2" points="426.7,255.5 426.7,65.2 399.8,65.2 399.8,282.4 					"/>
				</g>
				<g>
					<polygon class="st2" points="254.5,347.6 64.5,347.6 64.5,374.5 281.4,374.5 					"/>
				</g>
				<g>
					<polygon class="st2" points="373.8,282.6 373.8,65.2 346.9,65.2 346.9,255.7 					"/>
				</g>
				<g>
					<polygon class="st2" points="281.7,400.6 64.5,400.6 64.5,427.4 254.8,427.4 					"/>
				</g>
				<g>
					<polygon class="st2" points="518.6,427.4 709.2,427.4 709.2,400.6 491.7,400.6 					"/>
				</g>
				<g>
					<polygon class="st2" points="492,374.5 709.2,374.5 709.2,347.6 518.8,347.6 					"/>
				</g>
				<g>
					<polygon class="st2" points="399.8,492.9 399.8,709.9 426.7,709.9 426.7,519.8 					"/>
				</g>
				<g>
					<polygon class="st2" points="346.9,519.6 346.9,709.9 373.8,709.9 373.8,492.7 					"/>
				</g>
			</g>
		</g>
	</g>
</g>
<g>
	<g>
		
			<rect x="159.5" y="160.2" transform="matrix(0.7071 -0.7071 0.7071 0.7071 -160.7286 387.025)" class="st0" width="454.7" height="454.7"/>
	</g>
	<g>
		<defs>
			
				<rect id="SVGID_3_" x="185.7" y="186.4" transform="matrix(0.7071 -0.7071 0.7071 0.7071 -160.7286 387.025)" width="402.2" height="402.2"/>
		</defs>
		<clipPath id="SVGID_4_">
			<use xlink:href="#SVGID_3_"  style="overflow:visible;"/>
		</clipPath>
		<g class="st3">
			<g>
				<g>
					
						<rect x="259.6" y="101.4" transform="matrix(0.7071 -0.7071 0.7071 0.7071 -87.1167 262.242)" class="st2" width="26.9" height="269.8"/>
				</g>
				<g>
					
						<rect x="505.9" y="321.3" transform="matrix(0.7071 -0.7071 0.7071 0.7071 -189.1602 508.5968)" class="st2" width="26.9" height="322.7"/>
				</g>
			</g>
			<g>
				<g>
					
						<rect x="130.3" y="506.6" transform="matrix(0.7071 -0.7071 0.7071 0.7071 -282.3006 358.5936)" class="st2" width="322.7" height="26.9"/>
				</g>
				<g>
					
						<rect x="403.2" y="260.3" transform="matrix(0.7071 -0.7071 0.7071 0.7071 -35.9459 460.637)" class="st2" width="269.8" height="26.9"/>
				</g>
			</g>
			<g>
				<g>
					
						<rect x="320.5" y="241.6" transform="matrix(0.7071 -0.7071 0.7071 0.7071 -39.1566 415.4564)" class="st2" width="322.7" height="26.9"/>
				</g>
				<g>
					
						<rect x="100.7" y="487.9" transform="matrix(0.7071 -0.7071 0.7071 0.7071 -285.5113 313.4129)" class="st2" width="269.8" height="26.9"/>
				</g>
			</g>
			<g>
				<g>
					
						<rect x="240.8" y="131" transform="matrix(0.7071 -0.7071 0.7071 0.7071 -132.2968 265.4527)" class="st2" width="26.9" height="322.7"/>
				</g>
				<g>
					
						<rect x="487.2" y="403.9" transform="matrix(0.7071 -0.7071 0.7071 0.7071 -234.3403 511.8075)" class="st2" width="26.9" height="269.8"/>
				</g>
			</g>
			<g>
				<g>
					<polygon class="st2" points="426.7,255.5 426.7,65.2 399.8,65.2 399.8,282.4 					"/>
				</g>
				<g>
					<polygon class="st2" points="254.5,347.6 64.5,347.6 64.5,374.5 281.4,374.5 					"/>
				</g>
				<g>
					<polygon class="st2" points="373.8,282.6 373.8,65.2 346.9,65.2 346.9,255.7 					"/>
				</g>
				<g>
					<polygon class="st2" points="281.7,400.6 64.5,400.6 64.5,427.4 254.8,427.4 					"/>
				</g>
				<g>
					<polygon class="st2" points="518.6,427.4 709.2,427.4 709.2,400.6 491.7,400.6 					"/>
				</g>
				<g>
					<polygon class="st2" points="492,374.5 709.2,374.5 709.2,347.6 518.8,347.6 					"/>
				</g>
				<g>
					<polygon class="st2" points="399.8,492.9 399.8,709.9 426.7,709.9 426.7,519.8 					"/>
				</g>
				<g>
					<polygon class="st2" points="346.9,519.6 346.9,709.9 373.8,709.9 373.8,492.7 					"/>
				</g>
			</g>
		</g>
	</g>
</g>
</svg>
