<?xml version="1.0" encoding="utf-8"?>
<!-- Generator: Adobe Illustrator 23.0.1, SVG Export Plug-In . SVG Version: 6.00 Build 0)  -->
<svg version="1.1"
	 id="svg2" xmlns:cc="http://creativecommons.org/ns#" xmlns:dc="http://purl.org/dc/elements/1.1/" xmlns:inkscape="http://www.inkscape.org/namespaces/inkscape" xmlns:rdf="http://www.w3.org/1999/02/22-rdf-syntax-ns#" xmlns:sodipodi="http://sodipodi.sourceforge.net/DTD/sodipodi-0.dtd" xmlns:svg="http://www.w3.org/2000/svg"
	 xmlns="http://www.w3.org/2000/svg" xmlns:xlink="http://www.w3.org/1999/xlink" x="0px" y="0px" viewBox="0 0 771.6 772.8"
	 style="enable-background:new 0 0 771.6 772.8;" xml:space="preserve">
<style type="text/css">
	.st0{fill:#0D1637;}
	.st1{clip-path:url(#SVGID_2_);}
	.st2{fill:#94EEF2;}
</style>
<sodipodi:namedview  bordercolor="#666666" borderopacity="1" fit-margin-bottom="0" fit-margin-left="0" fit-margin-right="0" fit-margin-top="0" gridtolerance="10" guidetolerance="10" id="namedview4" inkscape:current-layer="svg2" inkscape:cx="-303.05253" inkscape:cy="515.46537" inkscape:pageopacity="0" inkscape:pageshadow="2" inkscape:window-height="797" inkscape:window-maximized="0" inkscape:window-width="1431" inkscape:window-x="1423" inkscape:window-y="163" inkscape:zoom="0.36645963" objecttolerance="10" pagecolor="#ffffff" showgrid="false" viewbox-x="-64.3" viewbox-y="-64.400025">
	</sodipodi:namedview>
<g>
	<g>
		
			<rect x="158.5" y="159.1" transform="matrix(0.7071 -0.7071 0.7071 0.7071 -160.2279 385.9758)" class="st0" width="454.7" height="454.7"/>
	</g>
	<g>
		<defs>
			
				<rect id="SVGID_1_" x="184.7" y="185.3" transform="matrix(0.7071 -0.7071 0.7071 0.7071 -160.2279 385.9758)" width="402.2" height="402.2"/>
		</defs>
		<clipPath id="SVGID_2_">
			<use xlink:href="#SVGID_1_"  style="overflow:visible;"/>
		</clipPath>
		<g class="st1">
			<g>
				<g>
					
						<rect x="258.5" y="100.2" transform="matrix(0.7071 -0.7071 0.7071 0.7071 -86.616 261.1928)" class="st2" width="26.9" height="269.8"/>
				</g>
				<g>
					
						<rect x="504.9" y="320.1" transform="matrix(0.7071 -0.7071 0.7071 0.7071 -188.6595 507.5476)" class="st2" width="26.9" height="322.7"/>
				</g>
			</g>
			<g>
				<g>
					
						<rect x="129.3" y="505.5" transform="matrix(0.7071 -0.7071 0.7071 0.7071 -281.7998 357.5444)" class="st2" width="322.7" height="26.9"/>
				</g>
				<g>
					
						<rect x="402.1" y="259.1" transform="matrix(0.7071 -0.7071 0.7071 0.7071 -35.4452 459.5878)" class="st2" width="269.8" height="26.9"/>
				</g>
			</g>
			<g>
				<g>
					
						<rect x="319.5" y="240.4" transform="matrix(0.7071 -0.7071 0.7071 0.7071 -38.6559 414.4071)" class="st2" width="322.7" height="26.9"/>
				</g>
				<g>
					
						<rect x="99.6" y="486.8" transform="matrix(0.7071 -0.7071 0.7071 0.7071 -285.0105 312.3637)" class="st2" width="269.8" height="26.9"/>
				</g>
			</g>
			<g>
				<g>
					
						<rect x="239.8" y="129.9" transform="matrix(0.7071 -0.7071 0.7071 0.7071 -131.7961 264.4035)" class="st2" width="26.9" height="322.7"/>
				</g>
				<g>
					
						<rect x="486.2" y="402.7" transform="matrix(0.7071 -0.7071 0.7071 0.7071 -233.8396 510.7583)" class="st2" width="26.9" height="269.8"/>
				</g>
			</g>
			<g>
				<g>
					<polygon class="st2" points="425.7,254.4 425.7,64.1 398.8,64.1 398.8,281.3 					"/>
				</g>
				<g>
					<polygon class="st2" points="253.5,346.5 63.5,346.5 63.5,373.4 280.4,373.4 					"/>
				</g>
				<g>
					<polygon class="st2" points="372.8,281.5 372.8,64.1 345.9,64.1 345.9,254.6 					"/>
				</g>
				<g>
					<polygon class="st2" points="280.7,399.4 63.5,399.4 63.5,426.3 253.8,426.3 					"/>
				</g>
				<g>
					<polygon class="st2" points="517.6,426.3 708.1,426.3 708.1,399.4 490.7,399.4 					"/>
				</g>
				<g>
					<polygon class="st2" points="490.9,373.4 708.1,373.4 708.1,346.5 517.8,346.5 					"/>
				</g>
				<g>
					<polygon class="st2" points="398.8,491.8 398.8,708.7 425.7,708.7 425.7,518.7 					"/>
				</g>
				<g>
					<polygon class="st2" points="345.9,518.4 345.9,708.7 372.8,708.7 372.8,491.5 					"/>
				</g>
			</g>
		</g>
	</g>
</g>
</svg>
